<svg width="382" height="285" viewBox="0 0 382 285" fill="none" xmlns="http://www.w3.org/2000/svg">
<g opacity="0.85">
<path d="M358.25 63.3271H33.8422V236.796H358.25V63.3271Z" fill="#5751BB"/>
<path d="M343.547 71.4571H48.5417V221.043H343.547V71.4571Z" fill="white"/>
<path d="M343.547 208.314H145.341V219.384H343.547V208.314Z" fill="#C4C3FC"/>
<path d="M335.779 209.792H152.427V210.943H335.779V209.792Z" fill="white"/>
<path d="M335.779 211.906H152.427V213.057H335.779V211.906Z" fill="white"/>
<path d="M335.779 213.876H152.427V215.027H335.779V213.876Z" fill="white"/>
<path d="M335.779 215.989H152.427V217.141H335.779V215.989Z" fill="white"/>
<path d="M145.341 169.018H48.5417V208.314H145.341V169.018Z" fill="#9595CE"/>
<path d="M365.34 265.126H23.265L20.7473 260.112H365.34V265.126Z" fill="#9595CE"/>
<path d="M271.681 252.237H120.408C118.628 252.237 117.186 253.339 117.186 254.697V258.622C117.186 259.981 118.628 261.082 120.408 261.082H271.681C273.46 261.082 274.903 259.981 274.903 258.622V254.697C274.903 253.339 273.46 252.237 271.681 252.237Z" fill="#5751BB"/>
<path d="M221.336 252.237H170.756L182.594 236.796H209.498L221.336 252.237Z" fill="#5751BB"/>
<path d="M144.487 149.861H61.9839V151.227H144.487V149.861Z" fill="#D8D5F7"/>
<path d="M144.487 152.366H61.9839V153.732H144.487V152.366Z" fill="#D8D5F7"/>
<path d="M144.487 154.702H61.9839V156.069H144.487V154.702Z" fill="#D8D5F7"/>
<path d="M144.487 157.21H61.9839V158.577H144.487V157.21Z" fill="#D8D5F7"/>
<path d="M144.487 159.546H61.9839V160.913H144.487V159.546Z" fill="#D8D5F7"/>
<path d="M144.487 162.052H61.9839V163.418H144.487V162.052Z" fill="#D8D5F7"/>
<path d="M144.487 164.388H61.9839V165.754H144.487V164.388Z" fill="#D8D5F7"/>
<path d="M144.487 166.896H61.9839V168.262H144.487V166.896Z" fill="#D8D5F7"/>
<path d="M144.487 209.792H61.9839V211.158H144.487V209.792Z" fill="#D8D5F7"/>
<path d="M144.487 212.299H61.9839V213.666H144.487V212.299Z" fill="#D8D5F7"/>
<path d="M144.487 214.636H61.9839V216.002H144.487V214.636Z" fill="#D8D5F7"/>
<path d="M144.487 217.141H61.9839V218.508H144.487V217.141Z" fill="#D8D5F7"/>
<path d="M144.487 125.044H61.9839V126.41H144.487V125.044Z" fill="#A3C1F5"/>
<path d="M144.487 127.549H61.9839V128.915H144.487V127.549Z" fill="#A3C1F5"/>
<path d="M144.487 129.885H61.9839V131.252H144.487V129.885Z" fill="#A3C1F5"/>
<path d="M144.487 132.393H61.9839V133.76H144.487V132.393Z" fill="#A3C1F5"/>
<path d="M144.487 134.729H61.9839V136.096H144.487V134.729Z" fill="#A3C1F5"/>
<path d="M144.487 137.235H61.9839V138.601H144.487V137.235Z" fill="#A3C1F5"/>
<path d="M144.487 139.571H61.9839V140.938H144.487V139.571Z" fill="#A3C1F5"/>
<path d="M144.487 142.079H61.9839V143.445H144.487V142.079Z" fill="#A3C1F5"/>
<path d="M3.05176e-05 269.442H25.1079L25.1079 61.7031H3.05176e-05L3.05176e-05 269.442Z" fill="#9595CE"/>
<path d="M7.67234 255.296H25.1079V253.993H7.67234V255.296Z" fill="white"/>
<path d="M7.67234 218.788H25.1079V217.485H7.67234V218.788Z" fill="white"/>
<path d="M16.3901 250.048H25.1079V249.396H16.3901V250.048Z" fill="white"/>
<path d="M16.3901 246.141H25.1079V245.489H16.3901V246.141Z" fill="white"/>
<path d="M16.3901 242.233H25.1079V241.582H16.3901V242.233Z" fill="white"/>
<path d="M16.3901 238.326H25.1079V237.675H16.3901V238.326Z" fill="white"/>
<path d="M16.3901 234.417H25.1079V233.765H16.3901V234.417Z" fill="white"/>
<path d="M16.3901 230.509H25.1079V229.858H16.3901V230.509Z" fill="white"/>
<path d="M16.3901 226.602H25.1079V225.951H16.3901V226.602Z" fill="white"/>
<path d="M16.3901 222.698H25.1079V222.046H16.3901V222.698Z" fill="white"/>
<path d="M7.67234 218.788H25.1079V217.485H7.67234V218.788Z" fill="white"/>
<path d="M7.67234 182.28H25.1079V180.977H7.67234V182.28Z" fill="white"/>
<path d="M16.3901 213.542H25.1079V212.891H16.3901V213.542Z" fill="white"/>
<path d="M16.3901 209.635H25.1079V208.983H16.3901V209.635Z" fill="white"/>
<path d="M16.3901 205.725H25.1079V205.074H16.3901V205.725Z" fill="white"/>
<path d="M16.3901 201.818H25.1079V201.166H16.3901V201.818Z" fill="white"/>
<path d="M16.3901 197.911H25.1079V197.259H16.3901V197.911Z" fill="white"/>
<path d="M16.3901 194.004H25.1079V193.352H16.3901V194.004Z" fill="white"/>
<path d="M16.3901 190.097H25.1079V189.445H16.3901V190.097Z" fill="white"/>
<path d="M16.3901 186.189H25.1079V185.538H16.3901V186.189Z" fill="white"/>
<path d="M7.67234 182.28H25.1079V180.977H7.67234V182.28Z" fill="white"/>
<path d="M7.67234 145.774H25.1079V144.471H7.67234V145.774Z" fill="white"/>
<path d="M16.3901 177.031H25.1079V176.38H16.3901V177.031Z" fill="white"/>
<path d="M16.3901 173.124H25.1079V172.473H16.3901V173.124Z" fill="white"/>
<path d="M16.3901 169.217H25.1079V168.566H16.3901V169.217Z" fill="white"/>
<path d="M16.3901 165.31H25.1079V164.658H16.3901V165.31Z" fill="white"/>
<path d="M16.3901 161.405H25.1079V160.754H16.3901V161.405Z" fill="white"/>
<path d="M16.3901 157.498H25.1079V156.847H16.3901V157.498Z" fill="white"/>
<path d="M16.3901 153.588H25.1079V152.937H16.3901V153.588Z" fill="white"/>
<path d="M16.3901 149.681H25.1079V149.03H16.3901V149.681Z" fill="white"/>
<path d="M7.67234 145.774H25.1079V144.471H7.67234V145.774Z" fill="white"/>
<path d="M7.67234 109.266H25.1079V107.963H7.67234V109.266Z" fill="white"/>
<path d="M16.3901 140.526H25.1079V139.874H16.3901V140.526Z" fill="white"/>
<path d="M16.3901 136.619H25.1079V135.967H16.3901V136.619Z" fill="white"/>
<path d="M16.3901 132.712H25.1079V132.06H16.3901V132.712Z" fill="white"/>
<path d="M16.3901 128.804H25.1079V128.153H16.3901V128.804Z" fill="white"/>
<path d="M16.3901 124.895H25.1079V124.243H16.3901V124.895Z" fill="white"/>
<path d="M16.3901 120.987H25.1079V120.336H16.3901V120.987Z" fill="white"/>
<path d="M16.3901 117.08H25.1079V116.429H16.3901V117.08Z" fill="white"/>
<path d="M16.3901 113.173H25.1079V112.522H16.3901V113.173Z" fill="white"/>
<path d="M7.67234 109.266H25.1079V107.963H7.67234V109.266Z" fill="white"/>
<path d="M7.67234 72.7604H25.1079V71.4571H7.67234V72.7604Z" fill="white"/>
<path d="M16.3901 104.02H25.1079V103.369H16.3901V104.02Z" fill="white"/>
<path d="M16.3901 100.113H25.1079V99.4614H16.3901V100.113Z" fill="white"/>
<path d="M16.3901 96.2034H25.1079V95.5517H16.3901V96.2034Z" fill="white"/>
<path d="M16.3901 92.2962H25.1079V91.6446H16.3901V92.2962Z" fill="white"/>
<path d="M16.3901 88.389H25.1079V87.7374H16.3901V88.389Z" fill="white"/>
<path d="M16.3901 84.4819H25.1079V83.8303H16.3901V84.4819Z" fill="white"/>
<path d="M16.3901 80.5747H25.1079V79.9231H16.3901V80.5747Z" fill="white"/>
<path d="M16.3901 76.6675H25.1079V76.0159H16.3901V76.6675Z" fill="white"/>
<path d="M6.27612 36.1436L6.27612 55.3107L356.999 55.3107V36.1436L6.27612 36.1436Z" fill="#9595CE"/>
<path d="M95.8129 42.0006V55.3107H97.5201V42.0006H95.8129Z" fill="white"/>
<path d="M143.637 42.0006V55.3107H145.344V42.0006H143.637Z" fill="white"/>
<path d="M102.688 48.6582V55.3132H103.541V48.6582H102.688Z" fill="white"/>
<path d="M107.806 48.6582V55.3132H108.66V48.6582H107.806Z" fill="white"/>
<path d="M112.924 48.6556V55.3107H113.778V48.6556H112.924Z" fill="white"/>
<path d="M118.042 48.6556V55.3107H118.896V48.6556H118.042Z" fill="white"/>
<path d="M123.161 48.6556V55.3107H124.014V48.6556H123.161Z" fill="white"/>
<path d="M128.279 48.6556V55.3107H129.132V48.6556H128.279Z" fill="white"/>
<path d="M133.397 48.6556V55.3107H134.251V48.6556H133.397Z" fill="white"/>
<path d="M138.518 48.6556V55.3107H139.372V48.6556H138.518Z" fill="white"/>
<path d="M143.637 42.0006V55.3107H145.344V42.0006H143.637Z" fill="white"/>
<path d="M47.7841 42.0006V55.3107H49.4912V42.0006H47.7841Z" fill="white"/>
<path d="M54.659 48.6582V55.3132H55.5126V48.6582H54.659Z" fill="white"/>
<path d="M59.7772 48.6557V55.3107H60.6308V48.6557H59.7772Z" fill="white"/>
<path d="M64.8954 48.6556V55.3107H65.749V48.6556H64.8954Z" fill="white"/>
<path d="M70.0135 48.6556V55.3107H70.8671V48.6556H70.0135Z" fill="white"/>
<path d="M75.1317 48.6556V55.3107H75.9853V48.6556H75.1317Z" fill="white"/>
<path d="M80.2499 48.6556V55.3107H81.1035V48.6556H80.2499Z" fill="white"/>
<path d="M85.3714 48.6556V55.3107H86.225V48.6556H85.3714Z" fill="white"/>
<path d="M90.4896 48.6556V55.3107H91.3432V48.6556H90.4896Z" fill="white"/>
<path d="M95.6078 42.0006V55.3107H97.315V42.0006H95.6078Z" fill="white"/>
<path d="M191.46 42.0031V55.3132H193.168V42.0031H191.46Z" fill="white"/>
<path d="M150.512 48.6556V55.3107H151.365V48.6556H150.512Z" fill="white"/>
<path d="M155.63 48.6556V55.3107H156.483V48.6556H155.63Z" fill="white"/>
<path d="M160.748 48.6556V55.3107H161.602V48.6556H160.748Z" fill="white"/>
<path d="M165.866 48.6582V55.3132H166.72V48.6582H165.866Z" fill="white"/>
<path d="M170.984 48.6582V55.3132H171.838V48.6582H170.984Z" fill="white"/>
<path d="M176.103 48.6582V55.3132H176.956V48.6582H176.103Z" fill="white"/>
<path d="M181.221 48.6556V55.3107H182.074V48.6556H181.221Z" fill="white"/>
<path d="M186.339 48.6556V55.3107H187.193V48.6556H186.339Z" fill="white"/>
<path d="M191.46 42.0031V55.3132H193.168V42.0031H191.46Z" fill="white"/>
<path d="M239.281 42.0006V55.3107H240.988V42.0006H239.281Z" fill="white"/>
<path d="M198.332 48.6556V55.3107H199.186V48.6556H198.332Z" fill="white"/>
<path d="M203.45 48.6556V55.3107H204.304V48.6556H203.45Z" fill="white"/>
<path d="M208.568 48.6556V55.3107H209.422V48.6556H208.568Z" fill="white"/>
<path d="M213.69 48.6556V55.3107H214.544V48.6556H213.69Z" fill="white"/>
<path d="M218.808 48.6557V55.3107H219.662V48.6557H218.808Z" fill="white"/>
<path d="M223.926 48.6556V55.3107H224.78V48.6556H223.926Z" fill="white"/>
<path d="M229.044 48.6556V55.3107H229.898V48.6556H229.044Z" fill="white"/>
<path d="M234.163 48.6582V55.3132H235.016V48.6582H234.163Z" fill="white"/>
<path d="M239.281 42.0006V55.3107H240.988V42.0006H239.281Z" fill="white"/>
<path d="M287.105 42.0006V55.3107H288.812V42.0006H287.105Z" fill="white"/>
<path d="M246.156 48.6582V55.3132H247.009V48.6582H246.156Z" fill="white"/>
<path d="M251.274 48.6582V55.3132H252.128V48.6582H251.274Z" fill="white"/>
<path d="M256.392 48.6557V55.3107H257.246V48.6557H256.392Z" fill="white"/>
<path d="M261.51 48.6556V55.3107H262.364V48.6556H261.51Z" fill="white"/>
<path d="M266.629 48.6556V55.3107H267.482V48.6556H266.629Z" fill="white"/>
<path d="M271.747 48.6556V55.3107H272.6V48.6556H271.747Z" fill="white"/>
<path d="M276.865 48.6557V55.3107H277.719V48.6557H276.865Z" fill="white"/>
<path d="M281.986 48.6556V55.3107H282.84V48.6556H281.986Z" fill="white"/>
<path d="M287.105 42.0006V55.3107H288.812V42.0006H287.105Z" fill="white"/>
<path d="M334.928 42.0006V55.3107H336.636V42.0006H334.928Z" fill="white"/>
<path d="M293.98 48.6556V55.3107H294.833V48.6556H293.98Z" fill="white"/>
<path d="M299.098 48.6556V55.3107H299.951V48.6556H299.098Z" fill="white"/>
<path d="M304.216 48.6556V55.3107H305.07V48.6556H304.216Z" fill="white"/>
<path d="M309.334 48.6582V55.3132H310.188V48.6582H309.334Z" fill="white"/>
<path d="M314.452 48.6582V55.3132H315.306V48.6582H314.452Z" fill="white"/>
<path d="M319.571 48.6582V55.3132H320.424V48.6582H319.571Z" fill="white"/>
<path d="M324.689 48.6556V55.3107H325.542V48.6556H324.689Z" fill="white"/>
<path d="M329.807 48.6557V55.3107H330.66V48.6557H329.807Z" fill="white"/>
<path d="M58.1362 284.836C77.395 284.836 93.0074 283.211 93.0074 281.207C93.0074 279.202 77.395 277.577 58.1362 277.577C38.8774 277.577 23.2651 279.202 23.2651 281.207C23.2651 283.211 38.8774 284.836 58.1362 284.836Z" fill="#B4BDED"/>
<path d="M75.8497 277.744L65.1468 278.6C65.1468 278.6 64.9417 279.146 62.2916 269.808C59.6416 260.471 46.4243 215.883 46.4243 215.883H44.2506L45.1671 264.595C45.1671 264.595 48.1215 267.864 45.574 269.808C47.7146 272.609 47.4102 275.799 46.3879 276.188C45.3689 276.577 36.9091 276.188 34.8711 278.989C33.647 271.286 25.6968 212.769 27.7348 207.478L62.0865 205.144C62.0865 205.144 67.7936 257.279 70.0367 260.314C72.2799 263.35 74.1127 268.174 73.8084 270.819C73.504 273.465 75.8464 277.744 75.8464 277.744H75.8497Z" fill="#8ABFDE"/>
<path d="M86.0431 282.179H65.9276C65.9276 282.179 64.9748 281.558 65.9276 278.754C66.8805 275.953 75.7736 276.888 75.7736 276.888C75.7736 276.888 79.6544 278.289 80.5047 278.289C81.355 278.289 86.7908 277.201 86.0431 282.179Z" fill="#0F3B47"/>
<path d="M49.3986 282.568C49.3986 282.568 37.1672 282.666 36.8099 282.568C36.4526 282.469 34.5932 281.05 35.6883 279.903C36.7834 278.757 37.5245 277.959 37.5245 277.959C37.5245 277.959 39.3739 276.383 42.3747 276.557C45.3755 276.731 46.7253 277.898 46.3184 278.658C46.3184 278.658 50.5995 279.61 49.8353 281.596C49.071 283.581 49.4019 282.568 49.4019 282.568H49.3986Z" fill="#0F3B47"/>
<path d="M60.1511 206.65C60.1511 206.65 47.2415 211.11 36.7735 209.451L28.2112 207.791L29.978 164.631C29.978 164.631 40.1713 158.301 51.4499 161.102C59.8765 163.8 60.1478 163.489 60.1478 163.489V206.65H60.1511Z" fill="#D0DADB"/>
<path d="M41.8057 212.459C41.8057 212.459 43.8437 172.723 43.3011 170.025C42.7585 167.328 38.8148 164.32 38.8148 164.32L35.9596 161.312C35.9596 161.312 24.4065 161.623 24.6778 167.224C24.9491 172.826 26.1732 208.205 26.1732 208.205C26.1732 208.205 26.3089 211.097 31.6619 211.681C37.0117 212.264 41.8057 212.459 41.8057 212.459Z" fill="#6E66C9"/>
<path d="M88.8487 177.708C88.8487 177.708 90.2018 175.708 89.6096 174.205C89.0174 172.705 89.5534 170.273 90.45 170.268C91.3466 170.263 91.3466 170.498 91.3102 172.081C91.2738 173.667 93.0604 173.645 94.2977 171.768C94.8337 170.952 102.718 169.664 102.155 174.392C101.437 180.411 91.2473 179.1 91.2473 179.1C91.2473 179.1 89.2358 179.81 88.852 177.708H88.8487Z" fill="#FF8968"/>
<path d="M88.9149 176.021C88.9149 176.021 92.3358 180.572 94.6848 180.249C87.4128 186.654 80.3393 194.708 75.6579 192.125C70.9764 189.541 62.5531 182.583 62.5531 182.583C62.5531 182.583 54.4374 159.663 58.6722 163.06C62.9071 166.457 75.9953 182.565 76.9581 183.174C77.9208 183.782 88.8321 177.016 88.9182 176.021H88.9149Z" fill="#6E66C9"/>
<path d="M57.501 210.383L52.406 171.268C52.406 171.268 52.0487 160.711 47.4102 159.973C53.7294 161.062 59.6912 162.191 61.2727 165.732C62.8541 169.273 63.8202 197.934 63.4132 209.137C59.3372 210.383 57.501 210.383 57.501 210.383Z" fill="#6E66C9"/>
<path d="M51.7443 165.964C51.7443 165.964 52.7633 163.668 54.8013 163.63C52.8129 161.102 49.2464 156.354 39.3574 158.261C35.0763 159.349 33.1905 164.33 37.1143 167.56C39.46 166.472 41.8024 166.899 41.8024 166.899C41.8024 166.899 36.8066 163.863 37.3161 162.423C37.8256 160.984 41.5973 158.844 48.5781 160.4C50.7187 161.14 52.0454 166.275 51.7377 165.964H51.7443Z" fill="#2A2A7C"/>
<path d="M54.0073 201.709H103.843V174.319H54.0073L54.0073 201.709Z" fill="#7A79CC"/>
<path d="M56.8559 200.146H100.997V175.882H56.8559L56.8559 200.146Z" stroke="white" stroke-width="1.6" stroke-miterlimit="10"/>
<path d="M78.9266 196.034C84.728 196.034 89.4309 192.444 89.4309 188.015C89.4309 183.587 84.728 179.997 78.9266 179.997C73.1252 179.997 68.4222 183.587 68.4222 188.015C68.4222 192.444 73.1252 196.034 78.9266 196.034Z" fill="#F76D1A"/>
<path d="M75.3932 182.82V193.322C75.3932 193.322 84.1738 188.139 84.0812 188.071C83.9919 188.003 75.3932 182.82 75.3932 182.82Z" fill="white"/>
<path d="M94.2977 171.768C95.2505 171.217 102.926 169.682 102.155 174.392C101.593 177.83 87.5153 175.683 94.2977 171.768Z" fill="#FF8968"/>
<path d="M63.1882 196.211C63.1882 196.211 64.5711 197.386 65.2527 197.075C65.9309 196.767 68.1277 195.514 71.9424 198.02C72.442 198.805 70.5098 199.191 69.0872 198.156C69.3585 198.825 69.021 201.406 72.1045 201.502L75.8828 201.75C76.0746 201.922 74.3311 202.386 74.3311 202.386C74.3311 202.386 74.7645 202.732 73.4544 203.25C72.1442 203.768 68.3097 204.652 66.8474 203.283C65.3883 201.917 64.0418 200.512 63.5058 200.24C62.9699 199.967 61.9045 199.454 61.9045 199.454C61.9045 199.454 61.5671 197.037 63.1882 196.211Z" fill="#FB8F69"/>
<path d="M25.399 164.873C25.399 164.873 28.3833 164.224 35.2781 169.455C38.3516 174.392 39.2582 188.72 39.2582 188.72C39.2582 188.72 66.6191 195.474 66.8209 195.653C64.2899 195.363 60.9385 197.891 63.4198 201.639C58.7483 198.929 33.6073 196.287 30.2658 192.213C26.9242 188.139 23.6356 166.05 25.399 164.876V164.873Z" fill="#5851BC"/>
<path d="M46.9007 162.307C46.9007 162.307 45.4218 163.903 42.5699 162.852C39.7147 161.802 39.2582 161.256 39.2582 161.256C39.2582 161.256 40.4294 155.344 40.6345 153.086C40.8396 150.83 47.2084 152.619 47.2084 152.619C47.2084 152.619 46.6493 161.256 46.904 162.307H46.9007Z" fill="#ED724F"/>
<path d="M51.9461 145.15C51.9461 145.15 52.5052 146.59 52.406 151.725C52.3034 156.859 50.4705 157.794 43.6915 156.937C36.9125 156.081 37.9315 151.373 38.6957 147.562C39.46 143.749 47.5128 140.364 51.9461 145.15Z" fill="#ED724F"/>
<path d="M54.9403 150.007C54.9403 150.007 54.3911 151.672 52.4192 150.143C50.4474 148.613 50.4209 146.552 51.0661 146.11C51.0661 146.11 44.1679 151.492 37.5775 150.007C30.987 148.522 39.6684 143.029 41.9281 142.168C44.1845 141.304 57.4216 140.028 54.9403 150.007Z" fill="black"/>
<path d="M145.341 221.043V220.068" stroke="#515151" stroke-width="0.97" stroke-miterlimit="10"/>
<path d="M145.341 218.098V73.417" stroke="#515151" stroke-width="0.97" stroke-miterlimit="10"/>
<path d="M145.341 72.432V71.4571" stroke="#515151" stroke-width="0.97" stroke-miterlimit="10"/>
<path d="M48.6376 88.0632H49.9147" stroke="#515151" stroke-width="0.97" stroke-miterlimit="10"/>
<path d="M52.4556 88.0632H340.999" stroke="#515151" stroke-width="0.97" stroke-miterlimit="10"/>
<path d="M342.27 88.0632H343.547" stroke="#515151" stroke-width="0.97" stroke-miterlimit="10"/>
<path d="M343.547 74.1495H48.5417V84.79H343.547V74.1495Z" fill="#9595CE"/>
<path d="M343.55 130.211H144.765V169.508H343.55V130.211Z" fill="#C4C3FC"/>
<path d="M230.861 78.3092H212.605V80.8146H230.861V78.3092Z" fill="#F76D1A"/>
<path d="M252.991 78.3092H234.735V80.8146H252.991V78.3092Z" fill="#F76D1A"/>
<path d="M275.125 78.3092H256.869V80.8146H275.125V78.3092Z" fill="#F76D1A"/>
<path d="M297.258 78.3092H279.002V80.8146H297.258V78.3092Z" fill="#F76D1A"/>
<path d="M337.985 75.2607H304.173C302.775 75.2607 301.642 76.1258 301.642 77.1929V182.522C301.642 183.589 302.775 184.454 304.173 184.454H337.985C339.383 184.454 340.516 183.589 340.516 182.522V77.1929C340.516 76.1258 339.383 75.2607 337.985 75.2607Z" fill="#9595CE"/>
<path d="M335.779 78.3092H306.357V80.5065H335.779V78.3092Z" fill="#F76D1A"/>
<path d="M335.779 85.2067H312.811V87.404H335.779V85.2067Z" fill="white"/>
<path d="M335.779 92.1017H312.811V94.299H335.779V92.1017Z" fill="white"/>
<path d="M335.779 98.9993H311.776V101.197H335.779V98.9993Z" fill="white"/>
<path d="M335.779 105.897H311.776V108.094H335.779V105.897Z" fill="white"/>
<path d="M335.779 112.794H311.776V114.992H335.779V112.794Z" fill="white"/>
<path d="M335.779 119.692H311.776V121.889H335.779V119.692Z" fill="white"/>
<path d="M335.779 126.589H311.776V128.787H335.779V126.589Z" fill="white"/>
<path d="M335.779 133.484H311.776V135.682H335.779V133.484Z" fill="white"/>
<path d="M335.779 140.382H311.776V142.579H335.779V140.382Z" fill="white"/>
<path d="M335.779 147.279H311.776V149.477H335.779V147.279Z" fill="white"/>
<path d="M335.779 154.177H311.776V156.374H335.779V154.177Z" fill="white"/>
<path d="M335.779 161.074H306.357V163.272H335.779V161.074Z" fill="white"/>
<path d="M335.779 167.969H306.357V170.167H335.779V167.969Z" fill="white"/>
<path d="M66.1394 81.5319H64.7531V83.4438H66.1394V81.5319Z" fill="white"/>
<path d="M67.9359 79.9534H66.5496V83.4413H67.9359V79.9534Z" fill="white"/>
<path d="M88.0083 78.7815H86.622V83.4413H88.0083V78.7815Z" fill="white"/>
<path d="M89.8875 77.5692H88.5079V83.4413H89.8875V77.5692Z" fill="white"/>
<path d="M68.3593 79.9535H69.5801V82.6508H71.3303V83.4287H68.3593V79.9535Z" fill="white"/>
<path d="M75.9522 81.6557C75.9522 82.7745 75.0755 83.4868 73.6694 83.4868C72.2633 83.4868 71.4825 82.6786 71.4825 81.7138C71.4825 80.6985 72.346 79.8953 73.7455 79.8953C75.1449 79.8953 75.9522 80.7262 75.9522 81.6582V81.6557ZM72.7728 81.691C72.7728 82.3452 73.1433 82.7467 73.7322 82.7467C74.3211 82.7467 74.6652 82.3073 74.6652 81.6809C74.6652 81.0546 74.3145 80.6303 73.719 80.6303C73.1235 80.6303 72.7728 81.052 72.7728 81.691Z" fill="white"/>
<path d="M80.5477 83.2696C80.2036 83.358 79.5684 83.4666 78.9729 83.4666C78.0829 83.4666 77.4741 83.2974 77.0606 82.9968C76.6338 82.6887 76.4121 82.2391 76.4121 81.739C76.4187 80.5318 77.5999 79.9181 79.0721 79.9181C79.6875 79.9181 80.154 80.0014 80.3889 80.0873L80.1474 80.8298C79.8893 80.7465 79.5816 80.6859 79.0655 80.6859C78.3145 80.6859 77.6958 80.9839 77.6958 81.6911C77.6958 82.3401 78.2417 82.7165 78.9861 82.7165C79.1548 82.7165 79.3103 82.7064 79.3699 82.6862V82.0876H78.7611V81.3653H80.5444V83.2671L80.5477 83.2696Z" fill="white"/>
<path d="M85.5931 81.6557C85.5931 82.7745 84.7163 83.4868 83.3102 83.4868C81.9041 83.4868 81.1234 82.6786 81.1234 81.7138C81.1234 80.6985 81.9868 79.8953 83.3863 79.8953C84.7858 79.8953 85.5931 80.7262 85.5931 81.6582V81.6557ZM82.4136 81.691C82.4136 82.3452 82.7842 82.7467 83.3731 82.7467C83.962 82.7467 84.3061 82.3073 84.3061 81.6809C84.3061 81.0546 83.9554 80.6303 83.3599 80.6303C82.7643 80.6303 82.4136 81.052 82.4136 81.691Z" fill="white"/>
<path d="M348.281 276.415C366.879 276.415 381.955 274.988 381.955 273.228C381.955 271.468 366.879 270.041 348.281 270.041C329.684 270.041 314.608 271.468 314.608 273.228C314.608 274.988 329.684 276.415 348.281 276.415Z" fill="#B4BDED"/>
<path d="M334.842 253.063C334.842 253.063 332.698 269.659 323.921 271.685C328.004 272.698 338.515 268.101 339.435 266.699C340.354 265.298 340.354 262.446 340.354 262.446C340.354 262.446 336.884 261.322 339.537 254.076C335.762 253.841 334.842 253.063 334.842 253.063Z" fill="#F8A17A"/>
<path d="M324.434 270.829C324.434 270.829 317.903 273.945 323.719 274.18C329.536 274.415 337.241 272.374 338.055 269.647C338.872 266.919 338.925 273.324 338.925 273.324L340.06 273.362C340.06 273.362 343.646 264.06 341.201 262.451C339.957 261.633 339.229 261.873 339.229 261.873C339.229 261.873 329.737 274.65 324.431 270.834L324.434 270.829Z" fill="#0B2D4E"/>
<path d="M346.071 192.291C346.071 192.291 330.012 251.508 334.095 255.455C341.171 256.703 355.325 255.662 361.039 201.434C362.127 223.251 360.222 251.508 366.481 254.624C373.287 256.703 376.281 248.184 373.558 220.548C374.104 211.405 380.635 204.965 377.095 196.239C373.558 187.513 346.068 192.291 346.068 192.291H346.071Z" fill="#0B2D4E"/>
<path d="M366.994 252.285C366.994 252.285 365.77 266.543 365.36 267.634C374.197 267.861 374.068 267.634 374.068 267.634C374.068 267.634 370.971 256.023 371.583 249.79L366.991 252.283L366.994 252.285Z" fill="#F8A17A"/>
<path d="M363.695 272.147C363.695 272.147 362.091 274.198 369.34 274.198C374.584 274.198 375.06 272.109 375.06 272.109C375.06 272.109 374.666 267.924 372.615 264.946C370.474 261.837 369.849 261.87 368.83 262.416C367.811 262.961 364 269.579 363.695 272.15V272.147Z" fill="#0B2D4E"/>
<path d="M366.074 270.283L368.139 274.221C368.139 274.221 367.914 268.879 367.503 268.957C367.097 269.035 366.074 270.281 366.074 270.281V270.283Z" fill="#2A3F9D"/>
<path d="M370.259 274.198C370.259 274.198 370.259 269.27 371.381 268.957C372.605 270.594 372.4 270.437 372.4 270.983C372.4 271.528 370.256 274.195 370.256 274.195L370.259 274.198Z" fill="#2A3F9D"/>
<path d="M351.481 153.255C351.481 153.255 345.152 148.502 350.663 140.71C356.175 132.919 366.686 138.606 366.994 143.281C367.328 148.378 368.436 153.384 359.236 154.735C353.929 155.513 351.477 153.255 351.477 153.255H351.481Z" fill="#F8A17A"/>
<path d="M356.619 153.54V160.708L365.532 158.423L362.402 151.932L356.619 153.54Z" fill="#F8A17A"/>
<path d="M326.637 137.184C326.637 137.184 323.845 147.295 329.529 145.66C334.078 153.73 335.706 158.352 337.426 161.731C339.147 165.11 359.6 167.096 365.499 166.484C371.394 165.873 372.112 164.479 371.765 162.923C371.765 162.923 371.884 160.893 364.794 160.231C357.701 159.569 344.453 160.893 343.448 159.716C342.442 158.539 333.416 146.075 333.158 143.963C332.368 137.465 327.69 137.169 326.637 137.182V137.184Z" fill="#F8A17A"/>
<path d="M354.101 160.19C354.101 160.19 369.207 154.268 370.838 157.384C372.473 160.501 370.838 161.332 370.838 161.332C370.838 161.332 374.24 160.812 376.145 161.749C378.051 162.683 371.927 175.567 372.88 181.383C373.833 187.2 379.139 194.057 377.098 196.239C375.057 198.421 347.838 198.004 346.207 196.656C344.573 195.304 345.661 187.306 348.113 183.358C350.561 179.411 348.768 168.169 349.188 165.376C349.608 162.58 354.101 160.19 354.101 160.19Z" fill="#DEE9FC"/>
<path d="M356.179 181.416C359.792 171.96 358.789 167.128 358.561 166.452C357.929 164.575 356.48 162.484 354.819 162.683C353.826 162.802 349.697 167.212 349.214 167.969C348.847 168.54 349.241 169.833 349.274 170.46C349.32 171.364 349.363 172.271 349.393 173.175C349.499 176.372 349.965 180.373 348.116 183.356C345.668 187.303 344.579 195.302 346.21 196.653C346.955 197.269 353.026 197.691 359.603 197.759C359.616 197.754 360.579 197.772 360.589 197.767C361.307 197.471 353.552 189.869 356.179 181.416Z" fill="#D8D5F7"/>
<path d="M328.313 138.2L263.845 128.328L252.033 173.383L316.501 183.256L328.313 138.2Z" fill="#7A79CC"/>
<path d="M291.951 146.762C288.259 146.196 284.693 147.865 283.558 150.537L289.748 151.485L288.157 157.541C288.454 157.619 288.746 157.705 289.063 157.753C293.04 158.362 296.908 156.394 297.705 153.359C298.502 150.323 295.925 147.37 291.948 146.762H291.951Z" fill="white"/>
<path d="M283.561 150.537L276.279 149.424L273.576 159.708L287.052 161.769L288.16 157.541L289.751 151.485L283.561 150.537Z" fill="#F76D1A"/>
<path d="M302.727 167.05L289.255 164.989L298.691 155.735L302.727 167.05Z" fill="#F76D1A"/>
<path d="M305.142 181.626C305.142 181.626 306.039 187.902 316.788 185.778C328.295 185.621 335.607 186.207 340.354 186.27C345.102 186.333 355.256 172.637 356.748 168.237C358.24 163.84 356.82 162.805 354.806 162.461C354.806 162.461 352.39 161.607 348.903 166.368C345.416 171.129 342.002 180.992 340.195 181.254C338.389 181.517 324.063 182.042 320.914 182.287C318.836 182.186 315.858 176.961 314.747 177.678C313.638 178.395 316.014 180.196 315.961 181.065C315.908 181.936 310.304 183.452 308.848 182.186C307.389 180.921 305.529 180.875 305.146 181.623L305.142 181.626Z" fill="#F8A17A"/>
<path d="M347.507 139.452C347.507 139.452 347.193 146.645 355.441 147.264C357.813 147.343 356.88 144.814 357.558 144.456C358.405 144.011 360.854 144.9 360.212 146.959C359.57 149.017 364.493 151.702 366.948 149.391C369.403 147.08 370.193 137.947 362.422 135.975C354.65 134.005 347.497 136.477 347.507 139.452Z" fill="#5751BB"/>
<path d="M366.21 150.805C366.21 150.805 364.592 150.697 365.767 147.148C366.944 143.6 380.344 145.784 379.206 151.581C378.547 153.222 375.07 157.129 372.632 153.869C370.706 151.293 367.676 154.803 366.21 150.805Z" fill="#5751BB"/>
<path d="M223.976 126.41H158.151V169.146H223.976V126.41Z" stroke="#515151" stroke-width="1.16" stroke-miterlimit="10"/>
<path d="M145.341 97.2212H61.9839V116.012H145.341V97.2212Z" fill="#C4C3FC"/>
<path d="M180.433 97.2212H157.506V116.012H180.433V97.2212Z" fill="#C4C3FC"/>
<path d="M208.926 97.2212H185.998V116.012H208.926V97.2212Z" fill="#C4C3FC"/>
<path d="M237.418 97.2212H214.491V116.012H237.418V97.2212Z" fill="#C4C3FC"/>
<path d="M265.911 97.2212H242.983V116.012H265.911V97.2212Z" fill="#C4C3FC"/>
<path d="M294.403 97.2212H271.476V116.012H294.403V97.2212Z" fill="#C4C3FC"/>
<path d="M109.838 24.2226C109.546 23.9397 104.656 14.1478 107.766 6.85377C110.876 -0.440285 116.091 1.77975 116.091 1.77975C116.091 1.77975 117.057 -1.8016 123.994 1.19633C130.932 4.19174 130.926 11.2484 129.95 14.855C128.974 18.4616 125.893 27.8418 125.893 27.8418L109.834 24.2251L109.838 24.2226Z" fill="#212121"/>
<path d="M126.541 12.8744C127.862 8.64513 125.453 4.5833 121.161 3.80205C116.868 3.02081 112.318 5.81601 110.997 10.0453C109.676 14.2746 112.085 18.3364 116.377 19.1176C120.67 19.8989 125.22 17.1037 126.541 12.8744Z" fill="#F29175"/>
<path d="M112.38 11.3078C112.668 10.3866 112.148 9.50255 111.218 9.33336C110.289 9.16417 109.302 9.77387 109.014 10.6952C108.726 11.6165 109.247 12.5005 110.176 12.6697C111.106 12.8389 112.093 12.2291 112.38 11.3078Z" fill="#F29175"/>
<path d="M110.413 8.00041C110.413 8.00041 112.091 10.271 111.833 11.5818C111.575 12.8926 112.514 11.7055 112.514 11.7055C112.514 11.7055 113.083 7.21494 116.177 6.15922C119.27 5.1035 114.595 3.09814 114.542 3.08804C114.489 3.07794 108.981 4.92923 110.413 8.00041Z" fill="#212121"/>
<path d="M117.636 2.69151C117.636 2.69151 117.606 4.36349 119.389 4.83073C121.172 5.29797 126.545 8.58383 123.058 13.9331C123.058 13.9331 122.899 14.5645 123.667 14.0443C124.434 13.5215 129.086 5.35101 123.541 3.01479C118 0.67605 117.636 2.69151 117.636 2.69151Z" fill="#212121"/>
<path d="M124.031 93.9884C124.031 93.9884 117.103 108.854 115.217 110.89C115.651 114.764 119.118 114.822 119.118 114.822C119.118 114.822 126.373 98.1052 128.881 95.428C131.389 92.7483 124.028 93.9884 124.028 93.9884H124.031Z" fill="#F8A17A"/>
<path d="M115.852 110.615C115.852 110.615 114.942 109.253 113.239 110.751C111.535 112.249 110.532 113.681 110.982 114.716C111.432 115.752 120.153 122.169 122.724 122.169C125.295 122.169 123.376 119.24 122.119 118.146C120.861 117.05 121.225 114.12 121.391 113.183C121.556 112.249 118.605 113.524 115.849 110.615H115.852Z" fill="#103942"/>
<path d="M111.409 93.7661C111.409 93.7661 105.156 108.806 103.363 110.89C103.972 114.749 107.439 114.716 107.439 114.716C107.439 114.716 113.937 97.8198 116.322 95.0769C118.711 92.3341 111.406 93.7661 111.406 93.7661H111.409Z" fill="#F8A17A"/>
<path d="M103.985 110.597C103.985 110.597 103.012 109.261 101.378 110.802C99.7434 112.345 98.3935 112.774 99.0354 114.284C99.6772 115.792 109.96 121.965 111.373 121.965C112.785 121.965 111.892 119.02 110.585 117.959C109.278 116.898 109.51 113.959 109.636 113.019C109.761 112.08 106.867 113.433 103.982 110.597H103.985Z" fill="#103942"/>
<path d="M120.322 22.879C120.322 22.879 119.856 26.8518 123.67 39.9371C125.116 44.8924 124.98 46.966 127.779 48.9133C129.503 50.1104 154.128 52.1208 157.45 51.939C160.775 51.7571 160.917 50.0599 160.43 49.2719C159.805 48.2566 153.724 47.7717 151.918 48.3172C149.989 48.9006 132.573 45.7739 132.196 45.3546C131.819 44.9354 132.676 33.3023 130.386 28.7182C128.004 23.9524 123.793 22.2299 120.322 22.8815V22.879Z" fill="#F29175"/>
<path d="M142.075 66.4513C140.676 59.3214 127.392 45.8396 127.392 45.8396L114.168 46.3043C110.364 45.5744 109.03 44.7763 109.03 44.7763C109.03 44.7763 94.8237 64.1909 113.057 68.7901C103.747 81.0748 105.219 104.005 105.219 104.005L112.051 105.745C112.051 105.745 127.587 76.2382 127.584 69.2876C130.621 70.1514 127.071 82.2038 123.975 89.321C120.878 96.4383 117.374 105.258 117.543 104.871C117.92 104.003 124.908 105.745 124.908 105.745C124.908 105.745 147.743 79.8271 142.075 66.4539V66.4513Z" fill="#8896D8"/>
<path d="M112.947 46.1199C109.573 45.5264 109.94 46.0542 109.94 46.0542C109.94 46.0542 105.907 49.7947 105.222 55.3132C107.829 53.8004 112.828 50.368 113.437 46.0517L112.951 46.1199H112.947Z" fill="#6175C1"/>
<path d="M128.279 59.2861L127.429 59.0411C127.429 59.0411 122.84 53.5731 122.985 47.1579L119.981 47.0115C118.301 52.2522 131.462 60.0614 127.488 68.8153C132.031 67.4287 128.279 59.2861 128.279 59.2861Z" fill="#6175C1"/>
<path d="M102.933 22.5178C102.933 22.5178 112.18 19.8785 123.578 23.0633C126.625 28.8445 125.139 30.716 125.139 30.716C125.139 30.716 113.325 30.3549 113.103 30.3448C112.881 30.3347 102.929 22.5178 102.929 22.5178H102.933Z" fill="#F29175"/>
<path d="M103.879 22.394C103.879 22.394 116.22 31.1024 124.001 28.0439C125.225 27.5388 123.048 22.8007 123.048 22.8007L124.338 23.1012C124.338 23.1012 136.921 36.8912 129.913 43.0891C127.591 45.2864 127.399 45.8396 127.399 45.8396C127.399 45.8396 112.081 48.1354 109.345 45.5264C106.542 41.9576 101.417 36.131 101.417 36.131C101.417 36.131 98.5987 27.4327 99.8394 24.8995C101.083 22.3688 103.886 22.3915 103.886 22.3915L103.879 22.394Z" fill="#2A2A7C"/>
<path d="M161.43 49.873L125.857 48.153L117.791 63.5797L153.364 65.3022L161.43 49.873Z" fill="#212121"/>
<path d="M153.377 65.2065L110.817 63.1453L110.724 64.2645L153.284 66.3257L153.377 65.2065Z" fill="#212121"/>
<path d="M101.494 23.5735C101.494 23.5735 96.1736 26.3012 92.5773 39.4244C88.9777 52.5451 90.2382 51.593 91.4425 53.1159C92.6435 54.6389 105.388 64.7187 107.588 66.6281C109.791 68.5375 115.045 69.2422 116.167 69.0704C117.288 68.8987 118.178 66.1811 112.395 64.7187C112.395 64.7187 110.678 64.0722 111.945 63.908C113.212 63.7438 115.584 61.8319 113.03 62.3825C110.476 62.9356 108.587 63.4635 106.81 62.6452C105.034 61.8269 95.9188 50.7393 95.8857 50.2291C95.8527 49.7189 104.809 37.3989 106.023 32.5799C107.287 27.5716 104.891 24.412 101.494 23.5735Z" fill="#F29175"/>
<path d="M110.125 22.3259C110.125 22.3259 113.301 17.272 112.898 14.7312C117.334 16.6204 119.065 17.9439 119.065 17.9439C119.065 17.9439 115.935 21.5075 118.162 24.0079C120.388 26.5083 115.515 24.8338 115.515 24.8338L110.125 22.3259Z" fill="#F29175"/>
<path d="M249.306 115.585V114.277L250.718 113.33C252.793 111.963 253.845 111.148 253.858 110.355C253.858 109.791 253.372 109.385 252.336 109.385C251.489 109.385 250.718 109.708 250.153 110.019L249.382 108.473C250.166 108.028 251.456 107.657 252.902 107.657C255.274 107.657 256.687 108.64 256.687 110.175C256.687 111.423 255.525 112.431 254.315 113.186L253.309 113.784V113.807H256.859V115.583H249.302L249.306 115.585Z" fill="#7A79CC"/>
<path d="M266.179 111.675C266.179 113.979 264.908 115.716 262.159 115.716C259.238 115.716 258.156 113.749 258.156 111.701C258.156 109.652 259.3 107.66 262.175 107.66C265.05 107.66 266.179 109.688 266.179 111.675ZM260.981 111.688C260.965 113.378 261.438 114.098 262.192 114.098C262.946 114.098 263.353 113.365 263.353 111.688C263.353 110.011 262.93 109.289 262.175 109.289C261.421 109.289 260.981 110.009 260.981 111.688Z" fill="#7A79CC"/>
<path d="M269.619 105.654C269.619 106.889 268.524 107.551 267.347 107.551C266.086 107.551 265.123 106.844 265.123 105.763C265.123 104.755 265.967 103.902 267.419 103.902C268.872 103.902 269.619 104.692 269.619 105.654ZM266.695 105.728C266.695 106.291 266.92 106.68 267.396 106.68C267.823 106.68 268.051 106.354 268.051 105.728C268.051 105.182 267.873 104.773 267.373 104.773C266.873 104.773 266.695 105.19 266.695 105.728ZM267.515 110.003L271.916 103.919H273.011L268.62 110.003H267.515ZM275.423 108.107C275.423 109.332 274.327 109.996 273.15 109.996C271.889 109.996 270.926 109.289 270.926 108.208C270.926 107.21 271.77 106.356 273.222 106.356C274.675 106.356 275.423 107.147 275.423 108.109V108.107ZM272.498 108.18C272.498 108.743 272.723 109.125 273.199 109.125C273.626 109.125 273.854 108.799 273.854 108.18C273.854 107.627 273.676 107.228 273.176 107.228C272.676 107.228 272.498 107.645 272.498 108.18Z" fill="#7A79CC"/>
<path d="M72.0119 106.46C72.0119 105.073 72.0119 103.689 72.0119 102.303C72.0119 102.202 72.0814 102.065 71.9325 102.005C71.7538 101.932 71.6612 102.081 71.5553 102.151C70.3874 102.942 69.2195 103.735 68.0616 104.535C67.8068 104.71 67.5554 104.811 67.1981 104.791C66.7779 104.765 66.3544 104.796 65.9309 104.783C65.6629 104.775 65.5571 104.836 65.5604 105.056C65.5736 105.98 65.5703 106.904 65.5604 107.826C65.5604 108.036 65.6497 108.124 65.9243 108.102C66.05 108.092 66.1791 108.114 66.3048 108.099C67.3072 107.97 68.055 108.266 68.7564 108.811C69.6397 109.501 70.6223 110.117 71.5652 110.761C71.6645 110.829 71.7538 110.953 71.9126 110.905C72.0814 110.855 72.0086 110.716 72.0086 110.617C72.0152 109.231 72.0119 107.847 72.0119 106.46Z" fill="#2A2A7C"/>
<path d="M81.8744 106.298C81.8115 104.321 81.0771 102.52 79.4559 100.957C78.9597 100.479 78.6354 100.391 78.2715 100.618C77.8943 100.853 77.9307 101.212 78.3774 101.633C81.0804 104.189 81.2756 107.872 78.8538 110.587C78.6553 110.807 78.4171 111.006 78.2086 111.221C77.9175 111.524 77.9506 111.915 78.2914 112.102C78.7115 112.335 79.0126 112.16 79.2872 111.908C81.0539 110.281 81.8413 108.392 81.8777 106.301L81.8744 106.298Z" fill="#2A2A7C"/>
<path d="M79.2409 105.796C79.2409 104.899 78.6817 103.568 77.4609 102.406C77.1731 102.131 76.8621 101.962 76.4221 102.204C76.0813 102.394 76.0449 102.783 76.3757 103.076C78.4369 104.904 78.4336 107.799 76.3857 109.617C76.0317 109.93 76.0813 110.334 76.4551 110.521C76.9183 110.754 77.2062 110.529 77.4841 110.271C78.6023 109.233 79.2309 107.847 79.2409 105.798V105.796Z" fill="#2A2A7C"/>
<path d="M76.6338 106.47C76.6338 105.533 76.3327 104.765 75.6843 104.083C75.2773 103.657 74.9464 103.571 74.5924 103.775C74.2186 103.992 74.1987 104.338 74.5726 104.717C75.2475 105.399 75.4593 106.154 75.2144 106.985C75.0986 107.384 74.8439 107.73 74.5097 108.049C74.2318 108.316 74.2087 108.594 74.4998 108.859C74.7678 109.104 75.1847 109.082 75.4957 108.799C76.2665 108.102 76.6106 107.283 76.6305 106.473L76.6338 106.47Z" fill="#2A2A7C"/>
</g>
</svg>
